<svg xmlns="http://www.w3.org/2000/svg" xml:space="preserve" id="svg2" width="690.785" height="215.105" version="1.1"><defs id="defs1"><style id="style1">@import url(https://fonts.googleapis.com/css2?family=Nunito:wght@900&amp;family=Fira+Code:wght@400&amp;display=swap);</style></defs><rect id="rect1" width="690.785" height="215.105" x="0" y="0" fill="#141726" rx="0" ry="20.017" style="display:inline;stroke-width:1.06099"/><text id="text1" x="329.726" y="139.885" fill="#fff" font-family="Nunito, sans-serif" font-size="104" font-weight="900" letter-spacing="-3.5" text-anchor="middle">vıva</text><circle id="circle1" cx="304" cy="67.854" r="7.5" fill="#e3215b"/><text id="text2" x="515" y="139.678" fill="#505268" font-family="'Fira Code', 'Courier New', monospace" font-size="41" font-weight="400" letter-spacing="0" style="fill:#a8a8bb;fill-opacity:1" text-anchor="middle">genicam</text><g id="layer2" style="display:inline" transform="translate(-32.268 -.467)scale(.11837)"><circle id="path12" cx="1189.069" cy="914.414" r="687.3" style="display:inline;fill:none;fill-opacity:1;stroke:#59616c;stroke-width:17.6;stroke-dasharray:none;stroke-opacity:1"/><circle id="path12-6" cx="1186.433" cy="913.673" r="680.791" style="display:inline;fill:#232736;fill-opacity:1;stroke:none;stroke-width:1;stroke-dasharray:none;stroke-opacity:1"/><g id="g14" style="display:inline;fill:none;fill-opacity:1;stroke:#59616c;stroke-opacity:1"><path id="path9" d="M682.104 444.548s333.041-88.397 505.676-87.144c166.536 1.209 496.81 86.369 496.81 86.369s8.128 102.066 18.85 217.534c7.737 83.308 18.947 173.592 19.376 237.554.498 74.094-12.775 180.46-22.256 275.91-11.032 111.064-18.554 206.533-18.554 206.533s-106.245 23.438-229.47 45.994c-93.86 17.18-197.702 34.903-271.176 35.184-78.625.3-190.303-17-288.27-35.923-112.612-21.753-206.804-45.55-206.804-45.55s-8.4-90.9-20.185-200.141c-10.07-93.34-21.32-200.238-21.611-273.447-.272-68.146 12.927-163.989 21.017-251.225 10.507-113.292 16.597-211.648 16.597-211.648z" style="display:inline;fill:none;fill-opacity:1;stroke:#59616c;stroke-width:6;stroke-dasharray:none;stroke-opacity:1"/><path id="path13" d="M490.773 910.732S712.079 681.3 824.752 568.577c116.924-116.975 359-341.287 359-341.287s240.558 225.081 355.57 338.66 335.933 345.013 335.933 345.013l-312.037 327.655L1185 1598.378s-241.402-221.515-357.745-336.785c-115.11-114.051-336.482-350.86-336.482-350.86Z" style="display:inline;fill:none;fill-opacity:1;stroke:#59616c;stroke-width:6;stroke-dasharray:none;stroke-opacity:1"/></g><g id="g15-2-2-8" style="display:inline;fill:#7e8e9d;fill-opacity:1" transform="matrix(1 0 0 -1 1.888 1828.01)"><path id="path10-4-2-2" d="M1287.06 973.31s3.243-2.489 4.433-4.116c1.205-1.648 2.612-5.54 2.612-5.54l434.07 207.62-29.692 57.673z" style="display:inline;fill:#7e8e9d;fill-opacity:1;stroke:none;stroke-width:6;stroke-dasharray:none;stroke-opacity:1"/><path id="path14-9-1-9" d="m1237.173 1018.348 12.894-7.313 261.57 407.331-60.64 33.285z" style="display:inline;fill:#7e8e9d;fill-opacity:1;stroke:none;stroke-width:6;stroke-dasharray:none;stroke-opacity:1"/><path id="path11-3-8-2" d="M1277.45 988.855s-3.257 4.605-5.324 6.49c-2.393 2.185-8.048 5.453-8.048 5.453l308.203 360.063s25.026-21.795 36.687-33.579c10.377-10.485 29.537-32.956 29.537-32.956z" style="display:inline;fill:#7e8e9d;fill-opacity:1;stroke:none;stroke-width:6;stroke-dasharray:none;stroke-opacity:1"/></g><g id="g15-2-2" style="display:inline;fill:#7e8e9d;fill-opacity:1" transform="rotate(180 1184.842 913.228)"><path id="path10-4-2" d="M1287.06 973.31s3.243-2.489 4.433-4.116c1.205-1.648 2.612-5.54 2.612-5.54l434.07 207.62-29.692 57.673z" style="display:inline;fill:#7e8e9d;fill-opacity:1;stroke:none;stroke-width:6;stroke-dasharray:none;stroke-opacity:1"/><path id="path14-9-1" d="m1237.173 1018.348 12.894-7.313 261.57 407.331-60.64 33.285z" style="display:inline;fill:#7e8e9d;fill-opacity:1;stroke:none;stroke-width:6;stroke-dasharray:none;stroke-opacity:1"/><path id="path11-3-8" d="M1277.45 988.855s-3.257 4.605-5.324 6.49c-2.393 2.185-8.048 5.453-8.048 5.453l308.203 360.063s25.026-21.795 36.687-33.579c10.377-10.485 29.537-32.956 29.537-32.956z" style="display:inline;fill:#7e8e9d;fill-opacity:1;stroke:none;stroke-width:6;stroke-dasharray:none;stroke-opacity:1"/></g><g id="g15" style="display:inline;fill:#7e8e9d;fill-opacity:1"><path id="path10" d="M1287.06 973.31s3.243-2.489 4.433-4.116c1.205-1.648 2.612-5.54 2.612-5.54l434.07 207.62-29.692 57.673z" style="display:inline;fill:#7e8e9d;fill-opacity:1;stroke:none;stroke-width:6;stroke-dasharray:none;stroke-opacity:1"/><path id="path14" d="m1237.173 1018.348 12.894-7.313 261.57 407.331-60.64 33.285z" style="display:inline;fill:#7e8e9d;fill-opacity:1;stroke:none;stroke-width:6;stroke-dasharray:none;stroke-opacity:1"/><path id="path11" d="M1277.45 988.855s-3.257 4.605-5.324 6.49c-2.393 2.185-8.048 5.453-8.048 5.453l308.203 360.063s25.026-21.795 36.687-33.579c10.377-10.485 29.537-32.956 29.537-32.956z" style="display:inline;fill:#7e8e9d;fill-opacity:1;stroke:none;stroke-width:6;stroke-dasharray:none;stroke-opacity:1"/></g><g id="g15-2" style="display:inline;fill:#7e8e9d;fill-opacity:1" transform="matrix(-1 0 0 1 2370.092 .727)"><path id="path10-4" d="M1287.06 973.31s3.243-2.489 4.433-4.116c1.205-1.648 2.612-5.54 2.612-5.54l434.07 207.62-29.692 57.673z" style="display:inline;fill:#7e8e9d;fill-opacity:1;stroke:none;stroke-width:6;stroke-dasharray:none;stroke-opacity:1"/><path id="path14-9" d="m1237.173 1018.348 12.894-7.313 261.57 407.331-60.64 33.285z" style="display:inline;fill:#7e8e9d;fill-opacity:1;stroke:none;stroke-width:6;stroke-dasharray:none;stroke-opacity:1"/><path id="path11-3" d="M1277.45 988.855s-3.257 4.605-5.324 6.49c-2.393 2.185-8.048 5.453-8.048 5.453l308.203 360.063s25.026-21.795 36.687-33.579c10.377-10.485 29.537-32.956 29.537-32.956z" style="display:inline;fill:#7e8e9d;fill-opacity:1;stroke:none;stroke-width:6;stroke-dasharray:none;stroke-opacity:1"/></g><g id="g12" style="display:inline"><path id="path8" d="m1234.472 1087.44-24.769-59.256c-20.694 4.598-27.425 4.626-47.704.372l-24.738 59.353c40.527 11.401 54.498 11.403 97.211-.47" style="display:inline;fill:#545d68;fill-opacity:1;stroke:none;stroke-width:2.57008"/><path id="path8-8" d="m1007.337 961.8 59.003-25.363c-4.805-20.647-4.9-27.377-.85-47.698l-59.599-24.14c-10.994 40.639-10.855 54.609 1.446 97.201" style="display:inline;fill:#545d68;fill-opacity:1;stroke:none;stroke-width:2.57008"/><path id="path8-0" d="m1136.986 736.393 25.344 59.012c20.648-4.8 27.378-4.893 47.698-.835l24.16-59.59c-40.636-11.008-54.606-10.874-97.202 1.413" style="display:inline;fill:#545d68;fill-opacity:1;stroke:none;stroke-width:2.57008"/><path id="path8-8-9" d="M1365.205 963.034 1306.2 937.67c4.806-20.647 4.901-27.377.85-47.698l59.6-24.14c10.993 40.639 10.855 54.609-1.446 97.2" style="display:inline;fill:#545d68;fill-opacity:1;stroke:none;stroke-width:2.57008"/></g><g id="g13"><circle id="path12-8" cx="1188.583" cy="913.359" r="119.959" style="display:inline;fill:#232736;fill-opacity:1;stroke:none;stroke-width:6;stroke-dasharray:none;stroke-opacity:1"/><circle id="path12-7" cx="1187.544" cy="913.634" r="66.791" style="display:inline;fill:#be386e;fill-opacity:1;stroke:none;stroke-width:6;stroke-dasharray:none;stroke-opacity:1"/></g><g id="g16" style="display:inline;fill:#58616d;fill-opacity:1"><circle id="path15" cx="680.26" cy="441.459" r="29.338" style="fill:#58616d;fill-opacity:1;stroke:none;stroke-width:6;stroke-dasharray:none;stroke-opacity:1"/><circle id="path15-4" cx="1184.236" cy="225.983" r="29.338" style="display:inline;fill:#58616d;fill-opacity:1;stroke:none;stroke-width:6;stroke-dasharray:none;stroke-opacity:1"/><circle id="small_circle-2" cx="1688.81" cy="440.753" r="29.338" style="display:inline;fill:#58616d;fill-opacity:1;stroke:none;stroke-width:6;stroke-dasharray:none;stroke-opacity:1"/><circle id="path15-3" cx="1877.553" cy="912.16" r="29.338" style="display:inline;fill:#58616d;fill-opacity:1;stroke:none;stroke-width:6;stroke-dasharray:none;stroke-opacity:1"/><circle id="path15-76" cx="1689.064" cy="1384.338" r="29.338" style="display:inline;fill:#58616d;fill-opacity:1;stroke:none;stroke-width:6;stroke-dasharray:none;stroke-opacity:1"/><circle id="path15-0" cx="1184.064" cy="1598.434" r="29.338" style="display:inline;fill:#58616d;fill-opacity:1;stroke:none;stroke-width:6;stroke-dasharray:none;stroke-opacity:1"/><circle id="path15-38" cx="679.791" cy="1384.338" r="29.338" style="display:inline;fill:#58616d;fill-opacity:1;stroke:none;stroke-width:6;stroke-dasharray:none;stroke-opacity:1"/><circle id="path15-44" cx="491.338" cy="912.338" r="29.338" style="display:inline;fill:#58616d;fill-opacity:1;stroke:none;stroke-width:6;stroke-dasharray:none;stroke-opacity:1"/></g></g></svg>