<svg xmlns="http://www.w3.org/2000/svg" xml:space="preserve" width="690" height="215"><rect width="690" height="215" fill="#141726" rx="0" ry="20" style="display:inline;stroke-width:1.06099"/><path d="M263.06 140.821q-3.64 0-6.24-1.768-2.496-1.872-4.16-5.512l-14.872-34.008q-1.248-3.12-.832-5.824t2.6-4.264q2.288-1.664 6.24-1.664 3.328 0 5.304 1.56 2.08 1.456 3.744 5.824l10.504 27.04h-3.536l11.024-27.144q1.664-4.264 3.744-5.72 2.08-1.56 5.72-1.56 3.12 0 4.992 1.664 1.976 1.56 2.392 4.264t-1.04 5.824l-15.184 34.112q-1.56 3.64-4.16 5.408-2.496 1.768-6.24 1.768m39.348 0q-4.368 0-6.76-2.6t-2.392-7.488V97.869q0-4.888 2.392-7.488t6.76-2.6q4.472 0 6.864 2.6 2.496 2.6 2.496 7.488v32.864q0 4.888-2.392 7.488t-6.968 2.6m39.244 0q-3.64 0-6.24-1.768-2.496-1.872-4.16-5.512L316.38 99.533q-1.248-3.12-.832-5.824t2.6-4.264q2.288-1.664 6.24-1.664 3.328 0 5.304 1.56 2.08 1.456 3.744 5.824l10.504 27.04h-3.536l11.024-27.144q1.664-4.264 3.744-5.72 2.08-1.56 5.72-1.56 3.12 0 4.992 1.664 1.976 1.56 2.392 4.264t-1.04 5.824l-15.184 34.112q-1.56 3.64-4.16 5.408-2.496 1.768-6.24 1.768m46.94.208q-5.928 0-10.504-2.184-4.472-2.184-7.072-5.928-2.496-3.848-2.496-8.736 0-5.616 2.912-8.84t9.36-4.576q6.448-1.456 17.16-1.456h5.72v8.736h-5.72q-4.056 0-6.76.624-2.6.52-3.848 1.768-1.248 1.144-1.248 3.016 0 2.392 1.664 3.952 1.768 1.56 4.992 1.56 2.6 0 4.576-1.144 2.08-1.144 3.328-3.12 1.248-2.08 1.248-4.784v-12.064q0-3.744-1.976-5.304-1.872-1.56-6.552-1.56-2.496 0-5.616.624-3.12.52-6.968 1.976-2.808 1.04-4.784.312t-3.12-2.496q-1.04-1.768-1.04-3.848.104-2.08 1.352-3.952 1.352-1.872 4.056-2.912 4.992-1.872 9.152-2.496 4.264-.624 7.8-.624 8.528 0 14.04 2.496 5.616 2.392 8.32 7.488 2.808 4.992 2.808 12.896v21.008q0 4.576-2.184 6.968t-6.344 2.392q-4.264 0-6.552-2.392-2.184-2.392-2.184-6.968v-2.704l.624 1.456q-.52 3.328-2.392 5.72t-4.888 3.744-6.864 1.352" aria-label="vıva" style="font-weight:900;font-size:104px;font-family:Nunito,sans-serif;letter-spacing:-3.5;text-anchor:middle;fill:#fff"/><circle cx="302" cy="70" r="7.5" fill="#e3215b"/><path d="m448.916 115.183 1.094 3.322q-1.43.442-3.028.547-1.577.105-3.448.105 3.847 1.766 3.847 5.572 0 3.28-2.207 5.403-2.187 2.124-6.119 2.124-1.114 0-1.871-.105-.736-.105-1.43-.316-.504.358-.84.947-.316.567-.316 1.198 0 .799.63 1.325.631.525 2.334.525h3.995q2.23 0 3.995.8 1.766.798 2.797 2.165 1.03 1.346 1.03 3.049 0 3.259-2.775 5.004-2.755 1.745-7.801 1.745-3.532 0-5.572-.736-2.04-.715-2.922-2.208-.862-1.472-.862-3.721h3.195q0 1.282.505 2.123t1.83 1.24q1.324.421 3.805.421 3.658 0 5.34-.925 1.683-.904 1.683-2.712 0-1.577-1.43-2.376t-3.575-.799h-3.952q-2.88 0-4.227-1.261-1.345-1.262-1.345-2.902 0-2.27 2.439-3.869-3.722-1.976-3.722-6.118 0-2.25 1.115-3.974 1.114-1.745 3.111-2.733 1.998-.989 4.605-.989 2.796 0 4.542-.23 1.745-.232 2.985-.653 1.262-.42 2.565-.988m-10.092 4.458q-2.67 0-3.953 1.45-1.261 1.451-1.261 3.659 0 2.25 1.282 3.7 1.304 1.451 4.016 1.451 2.334 0 3.574-1.367 1.241-1.366 1.241-3.805 0-5.088-4.899-5.088m20.1 10.218q.148 3.848 2.019 5.614 1.892 1.745 4.457 1.745 1.704 0 3.07-.505 1.367-.504 2.839-1.492l1.66 2.333q-1.534 1.22-3.532 1.914t-4.079.694q-3.238 0-5.508-1.451-2.25-1.45-3.449-4.037-1.177-2.607-1.177-6.034 0-3.365 1.177-5.972 1.199-2.607 3.365-4.1 2.186-1.493 5.13-1.493 4.184 0 6.58 2.902 2.419 2.902 2.419 7.948 0 .567-.042 1.072-.021.505-.042.862zm6.014-9.882q-2.46 0-4.121 1.745t-1.871 5.404h11.543q-.063-3.554-1.556-5.34-1.493-1.809-3.995-1.809m16.442 19.701v-22.14h3.007l.273 3.07q1.346-1.703 3.364-2.607 2.019-.926 3.953-.926 3.259 0 4.73 1.725 1.493 1.724 1.493 4.793v16.085h-3.532v-13.477q0-2.271-.252-3.659t-1.072-2.04q-.8-.651-2.46-.651-1.304 0-2.46.568-1.136.567-2.04 1.43-.883.84-1.472 1.702v16.127zM515 107.172q1.177 0 1.871.715.715.715.715 1.745 0 1.073-.715 1.809-.694.714-1.871.714-1.114 0-1.83-.714-.714-.736-.714-1.809 0-1.03.715-1.745t1.829-.715m2.817 10.366v19.344h6.245v2.796h-16.61v-2.796h6.833v-16.548h-6.623v-2.796zm24.033 19.575q1.66 0 3.09-.526 1.451-.546 2.67-1.408l1.725 2.312q-1.45 1.24-3.49 1.956-2.04.715-3.995.715-3.301 0-5.635-1.41-2.313-1.429-3.532-3.994-1.22-2.586-1.22-6.055 0-3.322 1.22-5.95t3.553-4.143q2.334-1.535 5.656-1.535 4.226 0 7.4 2.566l-1.723 2.354q-2.88-1.976-5.72-1.976-2.859 0-4.709 2.166-1.85 2.144-1.85 6.518 0 4.436 1.85 6.433 1.85 1.977 4.71 1.977m31.076-2.27q0 1.345.441 1.954.442.61 1.367.884l-.862 2.48q-1.43-.189-2.502-.904-1.073-.735-1.556-2.207-1.199 1.535-3.007 2.334-1.787.778-3.932.778-3.322 0-5.235-1.872-1.913-1.871-1.913-4.962 0-3.427 2.67-5.256t7.716-1.83h3.26v-1.85q0-2.397-1.41-3.385-1.387-1.009-3.868-1.009-1.093 0-2.565.273-1.472.253-3.196.862l-.925-2.67q2.018-.757 3.805-1.072 1.809-.316 3.428-.316 4.12 0 6.202 1.935 2.082 1.934 2.082 5.214zm-9.146 2.627q1.64 0 3.111-.82 1.493-.84 2.481-2.313v-5.697h-3.196q-3.658 0-5.172 1.261-1.493 1.262-1.493 3.385 0 4.184 4.269 4.184m33.115-20.395q1.051 0 2.04.463.988.463 1.618 1.787.631 1.325.631 3.869v16.484h-3.28v-15.916q0-2.082-.252-3.007t-1.45-.925q-.99 0-1.977.63-.989.61-1.893 2.019v17.199h-3.3v-15.916q0-2.082-.253-3.007-.252-.925-1.45-.925-1.031 0-1.998.63-.967.61-1.871 2.019v17.199h-3.26v-22.14h2.776l.21 2.565q.904-1.282 2.019-2.144 1.135-.884 2.796-.884 1.262 0 2.376.61 1.114.589 1.64 2.313.904-1.304 2.04-2.103 1.135-.82 2.838-.82" aria-label="genicam" style="font-size:41px;font-family:&quot;Fira Code&quot;,&quot;Courier New&quot;,monospace;letter-spacing:0;text-anchor:middle;fill:#a8a8bb"/><g style="display:inline" transform="translate(-32.268 -.467)scale(.11837)"><circle cx="1189.069" cy="914.414" r="687.3" style="display:inline;fill:none;fill-opacity:1;stroke:#59616c;stroke-width:17.6;stroke-dasharray:none;stroke-opacity:1"/><circle cx="1186.433" cy="913.673" r="680.791" style="display:inline;fill:#232736;fill-opacity:1;stroke:none;stroke-width:1;stroke-dasharray:none;stroke-opacity:1"/><g style="display:inline;fill:none;fill-opacity:1;stroke:#59616c;stroke-opacity:1"><path d="M682.104 444.548s333.041-88.397 505.676-87.144c166.536 1.209 496.81 86.369 496.81 86.369s8.128 102.066 18.85 217.534c7.737 83.308 18.947 173.592 19.376 237.554.498 74.094-12.775 180.46-22.256 275.91-11.032 111.064-18.554 206.533-18.554 206.533s-106.245 23.438-229.47 45.994c-93.86 17.18-197.702 34.903-271.176 35.184-78.625.3-190.303-17-288.27-35.923-112.612-21.753-206.804-45.55-206.804-45.55s-8.4-90.9-20.185-200.141c-10.07-93.34-21.32-200.238-21.611-273.447-.272-68.146 12.927-163.989 21.017-251.225 10.507-113.292 16.597-211.648 16.597-211.648z" style="display:inline;fill:none;fill-opacity:1;stroke:#59616c;stroke-width:6;stroke-dasharray:none;stroke-opacity:1"/><path d="M490.773 910.732S712.079 681.3 824.752 568.577c116.924-116.975 359-341.287 359-341.287s240.558 225.081 355.57 338.66 335.933 345.013 335.933 345.013l-312.037 327.655L1185 1598.378s-241.402-221.515-357.745-336.785c-115.11-114.051-336.482-350.86-336.482-350.86Z" style="display:inline;fill:none;fill-opacity:1;stroke:#59616c;stroke-width:6;stroke-dasharray:none;stroke-opacity:1"/></g><g style="display:inline;fill:#7e8e9d;fill-opacity:1"><path d="M1287.06 973.31s3.243-2.489 4.433-4.116c1.205-1.648 2.612-5.54 2.612-5.54l434.07 207.62-29.692 57.673zm-49.887 45.038 12.894-7.313 261.57 407.331-60.64 33.285zm40.277-29.493s-3.257 4.605-5.324 6.49c-2.393 2.185-8.048 5.453-8.048 5.453l308.203 360.063s25.026-21.795 36.687-33.579c10.377-10.485 29.537-32.956 29.537-32.956z" style="display:inline;fill:#7e8e9d;fill-opacity:1;stroke:none;stroke-width:6;stroke-dasharray:none;stroke-opacity:1" transform="matrix(1 0 0 -1 1.888 1828.01)"/></g><g style="display:inline;fill:#7e8e9d;fill-opacity:1"><path d="M1287.06 973.31s3.243-2.489 4.433-4.116c1.205-1.648 2.612-5.54 2.612-5.54l434.07 207.62-29.692 57.673zm-49.887 45.038 12.894-7.313 261.57 407.331-60.64 33.285zm40.277-29.493s-3.257 4.605-5.324 6.49c-2.393 2.185-8.048 5.453-8.048 5.453l308.203 360.063s25.026-21.795 36.687-33.579c10.377-10.485 29.537-32.956 29.537-32.956z" style="display:inline;fill:#7e8e9d;fill-opacity:1;stroke:none;stroke-width:6;stroke-dasharray:none;stroke-opacity:1" transform="rotate(180 1184.842 913.228)"/></g><g style="display:inline;fill:#7e8e9d;fill-opacity:1"><path d="M1287.06 973.31s3.243-2.489 4.433-4.116c1.205-1.648 2.612-5.54 2.612-5.54l434.07 207.62-29.692 57.673zm-49.887 45.038 12.894-7.313 261.57 407.331-60.64 33.285zm40.277-29.493s-3.257 4.605-5.324 6.49c-2.393 2.185-8.048 5.453-8.048 5.453l308.203 360.063s25.026-21.795 36.687-33.579c10.377-10.485 29.537-32.956 29.537-32.956z" style="display:inline;fill:#7e8e9d;fill-opacity:1;stroke:none;stroke-width:6;stroke-dasharray:none;stroke-opacity:1"/></g><g style="display:inline;fill:#7e8e9d;fill-opacity:1"><path d="M1287.06 973.31s3.243-2.489 4.433-4.116c1.205-1.648 2.612-5.54 2.612-5.54l434.07 207.62-29.692 57.673zm-49.887 45.038 12.894-7.313 261.57 407.331-60.64 33.285zm40.277-29.493s-3.257 4.605-5.324 6.49c-2.393 2.185-8.048 5.453-8.048 5.453l308.203 360.063s25.026-21.795 36.687-33.579c10.377-10.485 29.537-32.956 29.537-32.956z" style="display:inline;fill:#7e8e9d;fill-opacity:1;stroke:none;stroke-width:6;stroke-dasharray:none;stroke-opacity:1" transform="matrix(-1 0 0 1 2370.092 .727)"/></g><g style="display:inline"><path d="m1234.472 1087.44-24.769-59.256c-20.694 4.598-27.425 4.626-47.704.372l-24.738 59.353c40.527 11.401 54.498 11.403 97.211-.47M1007.337 961.8l59.003-25.363c-4.805-20.647-4.9-27.377-.85-47.698l-59.599-24.14c-10.994 40.639-10.855 54.609 1.446 97.201m129.649-225.407 25.344 59.012c20.648-4.8 27.378-4.893 47.698-.835l24.16-59.59c-40.636-11.008-54.606-10.874-97.202 1.413m228.219 226.641L1306.2 937.67c4.806-20.647 4.901-27.377.85-47.698l59.6-24.14c10.993 40.639 10.855 54.609-1.446 97.2" style="display:inline;fill:#545d68;fill-opacity:1;stroke:none;stroke-width:2.57008"/></g><circle cx="1188.583" cy="913.359" r="119.959" style="display:inline;fill:#232736;fill-opacity:1;stroke:none;stroke-width:6;stroke-dasharray:none;stroke-opacity:1"/><circle cx="1187.544" cy="913.634" r="66.791" style="display:inline;fill:#be386e;fill-opacity:1;stroke:none;stroke-width:6;stroke-dasharray:none;stroke-opacity:1"/><g style="display:inline;fill:#58616d;fill-opacity:1"><circle cx="680.26" cy="441.459" r="29.338" style="fill:#58616d;fill-opacity:1;stroke:none;stroke-width:6;stroke-dasharray:none;stroke-opacity:1"/><circle cx="1184.236" cy="225.983" r="29.338" style="display:inline;fill:#58616d;fill-opacity:1;stroke:none;stroke-width:6;stroke-dasharray:none;stroke-opacity:1"/><circle cx="1688.81" cy="440.753" r="29.338" style="display:inline;fill:#58616d;fill-opacity:1;stroke:none;stroke-width:6;stroke-dasharray:none;stroke-opacity:1"/><circle cx="1877.553" cy="912.16" r="29.338" style="display:inline;fill:#58616d;fill-opacity:1;stroke:none;stroke-width:6;stroke-dasharray:none;stroke-opacity:1"/><circle cx="1689.064" cy="1384.338" r="29.338" style="display:inline;fill:#58616d;fill-opacity:1;stroke:none;stroke-width:6;stroke-dasharray:none;stroke-opacity:1"/><circle cx="1184.064" cy="1598.434" r="29.338" style="display:inline;fill:#58616d;fill-opacity:1;stroke:none;stroke-width:6;stroke-dasharray:none;stroke-opacity:1"/><circle cx="679.791" cy="1384.338" r="29.338" style="display:inline;fill:#58616d;fill-opacity:1;stroke:none;stroke-width:6;stroke-dasharray:none;stroke-opacity:1"/><circle cx="491.338" cy="912.338" r="29.338" style="display:inline;fill:#58616d;fill-opacity:1;stroke:none;stroke-width:6;stroke-dasharray:none;stroke-opacity:1"/></g></g></svg>